<svg xmlns="http://www.w3.org/2000/svg" viewBox="0 0 48 48" width="48" height="48">
  <rect fill="#1A1F71" width="48" height="48" rx="4"/>
  <path fill="#FFFFFF" d="M19.78 15.5l-3.59 17h-4.2l3.59-17h4.2zm14.12 11.02l2.21-6.09.94 6.09h-3.15zm4.69 5.98h3.89l-3.39-17h-3.58c-.81 0-1.49.47-1.79 1.19l-6.32 15.81h4.43l.88-2.44h5.41l.47 2.44zm-12.73-5.54c.02-4.48-6.19-4.73-6.15-6.73.01-.61.59-1.26 1.87-1.42.63-.09 2.38-.15 4.36.78l.78-3.62c-1.06-.39-2.43-.76-4.14-.76-4.37 0-7.44 2.32-7.47 5.64-.03 2.45 2.19 3.82 3.86 4.63 1.72.83 2.3 1.37 2.29 2.11-.01 1.14-1.37 1.64-2.64 1.66-2.22.04-3.51-.6-4.54-1.08l-.8 3.75c1.03.47 2.94.89 4.92.91 4.65 0 7.68-2.29 7.66-5.87z"/>
</svg>
